HIERARCHY
ROOT joint1
{
  OFFSET -2.43861 25.1421 -2.4407
  CHANNELS 6 Xposition Yposition Zposition Zrotation Xrotation Yrotation
  JOINT joint2
  {
    OFFSET 0 -16 0
    CHANNELS 6 Xposition Yposition Zposition Zrotation Xrotation Yrotation
    End Site
    {
      OFFSET 0 0 0
    }
  }
}
MOTION
Frames:	60
Frame Time:	0.0166667
-2.43861 25.1421 -2.4407 26.9514 -5.89752e-009 4.01212e-009 -8.88178e-015 -16 -8.88178e-016 -90 7.40531e-025 -0 
-2.43456 25.157 -2.27414 26.9314 1.44068 -0.747479 -8.88178e-015 -16 -8.88178e-016 -90 0 1.98785e-016 
-2.42749 25.1718 -1.99525 26.9588 3.84136 -1.99563 -8.88178e-015 -16 -1.33227e-015 -90 0 -7.95139e-016 
-2.42124 25.1013 -1.76945 27.0117 5.7606 -2.99906 -1.06581e-014 -16 -1.77636e-015 -90 3.97569e-016 -0 
-2.41454 24.9631 -1.54214 27.0979 7.67808 -4.00926 -1.06581e-014 -16 -8.88178e-016 -90 7.95139e-016 1.59028e-015 
-2.40729 24.805 -1.31414 27.2178 9.59322 -5.02853 -8.88178e-015 -16 -1.77636e-015 -90 -7.95139e-016 -0 
-2.39985 24.63 -1.08457 27.3729 11.5054 -6.05933 -8.88178e-015 -16 -8.88178e-016 -90 7.95139e-016 1.59028e-015 
-2.39076 24.4573 -0.829156 27.5706 13.587 -7.35617 -1.06581e-014 -16 0 -90 1.59028e-015 -1.59028e-015 
-2.38532 24.2861 -0.618983 27.795 15.318 -8.1657 -8.88178e-015 -16 0 -90 1.59028e-015 -3.18055e-015 
-2.39427 24.1289 -0.536092 27.8034 16.1479 -7.76521 -1.06581e-014 -16 -8.88178e-016 -90 1.59028e-015 -0 
-2.42071 23.9648 -0.523353 27.5017 16.3978 -6.41645 -1.06581e-014 -16 -1.77636e-015 -90 1.59028e-015 3.18055e-015 
-2.46736 23.771 -0.624922 27.0079 15.7849 -3.84474 -7.10543e-015 -16 0 -90 3.97569e-016 -3.18055e-015 
-2.52529 23.5666 -0.791378 26.5507 14.7028 -0.812408 -5.32907e-015 -16 -1.77636e-015 -90 4.96962e-016 -1.59028e-015 
-2.58558 23.3613 -0.919447 26.1626 13.8327 1.96385 -7.10543e-015 -16 -1.77636e-015 -90 -1.19271e-015 -1.59028e-015 
-2.65092 23.16 -1.04245 25.832 12.9515 4.72485 -8.88178e-015 -16 -8.88178e-016 -90 -2.38542e-015 3.18055e-015 
-2.72113 22.9687 -1.15902 25.5593 12.0619 7.47201 -7.10543e-015 -16 -8.88178e-016 -90 -7.95139e-016 -3.18055e-015 
-2.79595 22.7935 -1.26992 25.3436 11.1667 10.2069 -8.88178e-015 -16 -8.88178e-016 -90 -1.59028e-015 3.18055e-015 
-2.88397 22.6143 -1.37443 25.1673 10.2663 13.2317 -8.88178e-015 -16 -8.88178e-016 -90 0 1.59028e-015 
-2.95852 22.5156 -1.47564 25.0823 9.37019 15.6464 -9.76996e-015 -16 -1.33227e-015 -90 0 3.18055e-015 
-2.98967 22.5238 -1.57601 25.1579 8.49638 16.5117 -8.88178e-015 -16 0 -90 -3.18055e-015 1.59028e-015 
-2.99584 22.5813 -1.67677 25.3019 7.62678 16.604 -6.21725e-015 -16 -8.88178e-016 -90 -6.36111e-015 -1.59028e-015 
-2.95552 22.9687 -1.78122 25.5176 6.76895 15.2882 -8.88178e-015 -16 -8.88178e-016 -90 0 3.18055e-015 
-2.88596 23.6391 -1.88564 25.7583 5.90916 13.125 -8.88178e-015 -16 -1.77636e-015 -90 -1.59028e-015 7.95139e-016 
-2.82567 24.4052 -1.98717 25.9454 5.04082 11.3946 -5.32907e-015 -16 -8.88178e-016 -90 0 -0 
-2.76196 25.2391 -2.08661 26.1056 4.16732 9.66907 -8.88178e-015 -16 -8.88178e-016 -90 3.18055e-015 -1.59028e-015 
-2.69495 26.073 -2.18384 26.2394 3.2894 7.94775 -8.88178e-015 -16 -1.33227e-015 -90 0 3.97569e-016 
-2.62472 26.839 -2.27875 26.3466 2.40794 6.22978 -8.88178e-015 -16 -8.88178e-016 -90 -7.95139e-016 3.97569e-016 
-2.54804 27.4758 -2.37459 26.4289 1.4885 4.44595 -8.88178e-015 -16 -8.88178e-016 -90 7.95139e-016 -3.97569e-016 
-2.47487 27.8966 -2.4612 26.4815 0.637417 2.80064 -8.88178e-015 -16 -4.44089e-016 -90 0 -1.98785e-016 
-2.4147 28.0324 -2.52793 26.5078 -0.0378845 1.49775 -7.10543e-015 -16 -8.88178e-016 -90 -1.98785e-016 -3.66509e-016 
-2.36575 28.0518 -2.57946 26.5107 -0.571311 0.46813 -7.10543e-015 -16 -4.44089e-016 -90 0 -0 
-2.33272 28.0512 -2.61356 26.5079 -0.928166 -0.219852 -1.06581e-014 -16 -8.88178e-016 -90 1.49089e-016 1.98785e-016 
-2.30564 28.0502 -2.64028 26.5065 -1.21412 -0.771277 -7.10543e-015 -16 -4.44089e-016 -90 9.93923e-017 -0 
-2.27499 28.0494 -2.67011 26.4989 -1.53527 -1.39121 -1.06581e-014 -16 -8.88178e-016 -90 0 -3.97569e-016 
-2.24398 28.0486 -2.69954 26.4879 -1.85627 -2.01132 -7.10543e-015 -16 -8.88178e-016 -90 0 7.95139e-016 
-2.21265 28.0478 -2.72864 26.4736 -2.17732 -2.63151 -8.88178e-015 -16 -1.33227e-015 -90 0 -0 
-2.1809 28.047 -2.75728 26.4554 -2.49785 -3.25209 -8.88178e-015 -16 -8.88178e-016 -90 7.95139e-016 7.95139e-016 
-2.14666 28.0463 -2.78691 26.4316 -2.83593 -3.90971 -1.06581e-014 -16 -8.88178e-016 -90 0 -3.97569e-016 
-2.11591 28.0457 -2.81295 26.4059 -3.13596 -4.49523 -1.06581e-014 -16 -8.88178e-016 -90 1.59028e-015 -0 
-2.09368 28.0452 -2.83144 26.3857 -3.35119 -4.91542 -1.06581e-014 -16 -4.44089e-016 -90 1.59028e-015 -3.97569e-016 
-2.08074 28.045 -2.84196 26.3738 -3.47541 -5.15797 -1.06581e-014 -16 -8.88178e-016 -90 0 -3.97569e-016 
-2.0775 28.0449 -2.84459 26.3707 -3.50645 -5.21864 -7.10543e-015 -16 -8.88178e-016 -90 0 3.97569e-016 
-2.07642 28.0449 -2.84547 26.3696 -3.5168 -5.23886 -5.32907e-015 -16 -4.44089e-016 -90 2.38542e-015 3.97569e-016 
-2.07426 28.0448 -2.84722 26.3675 -3.53749 -5.2793 -8.88178e-015 -16 -8.88178e-016 -90 7.95139e-016 -3.97569e-016 
-2.0721 28.0448 -2.84897 26.3654 -3.55818 -5.31975 -8.88178e-015 -16 -8.88178e-016 -90 1.59028e-015 -7.95139e-016 
-2.06994 28.0448 -2.85072 26.3632 -3.57887 -5.3602 -8.88178e-015 -16 -8.88178e-016 -90 7.95139e-016 1.98785e-015 
-2.06777 28.0447 -2.85247 26.3611 -3.59956 -5.40066 -7.10543e-015 -16 -8.88178e-016 -90 -7.95139e-016 7.95139e-016 
-2.06561 28.0447 -2.85421 26.3589 -3.62025 -5.44111 -8.88178e-015 -16 -8.88178e-016 -90 0 7.95139e-016 
-2.06344 28.0446 -2.85595 26.3567 -3.64093 -5.48156 -8.88178e-015 -16 -8.88178e-016 -90 0 -1.59028e-015 
-2.06127 28.0446 -2.8577 26.3545 -3.66162 -5.52203 -7.10543e-015 -16 -4.44089e-016 -90 7.95139e-016 -0 
-2.0591 28.0445 -2.85944 26.3523 -3.68231 -5.56249 -8.88178e-015 -16 -8.88178e-016 -90 0 -7.95139e-016 
-2.05693 28.0445 -2.86117 26.3501 -3.70299 -5.60296 -1.06581e-014 -16 -8.88178e-016 -90 -7.95139e-016 -0 
-2.05475 28.0444 -2.86291 26.3478 -3.72367 -5.64342 -8.88178e-015 -16 -1.33227e-015 -90 1.59028e-015 -1.59028e-015 
-2.05258 28.0444 -2.86464 26.3456 -3.74434 -5.68388 -8.88178e-015 -16 -8.88178e-016 -90 0 7.95139e-016 
-2.05041 28.0444 -2.86638 26.3433 -3.76502 -5.72434 -8.88178e-015 -16 -8.88178e-016 -90 0 -1.59028e-015 
-2.04823 28.0443 -2.86811 26.341 -3.7857 -5.76481 -8.88178e-015 -16 -8.88178e-016 -90 7.95139e-016 -0 
-2.04605 28.0443 -2.86984 26.3387 -3.80637 -5.80529 -7.10543e-015 -16 -8.88178e-016 -90 0 7.95139e-016 
-2.04332 28.0442 -2.872 26.3358 -3.83221 -5.85587 -7.10543e-015 -16 -4.44089e-016 -90 0 -7.95139e-016 
-2.04169 28.0442 -2.87329 26.334 -3.84771 -5.88623 -7.10543e-015 -16 -4.44089e-016 -90 1.59028e-015 1.59028e-015 
-2.04169 28.0442 -2.87329 26.334 -3.84771 -5.88623 -7.10543e-015 -16 -4.44089e-016 -90 1.59028e-015 1.59028e-015 
